# xmcd
#
# Track frame offsets: 
#        150
#        17725
#        40202
#        68447
#        90072
#        109370
#        139927
#        165332
#        192172
#        214602
#        232195
#        256705
#
# Disc length: 3428 seconds
#
# Revision: 3
# Processed by: cddbd v1.5.2PL0 Copyright (c) Steve Scherf et al.
# Submitted via: ExactAudioCopy v1.0b3
#
DISCID=940d620c
DTITLE=Washington, Walter 'Wolfman' and The Roadmasters - Funk is in the
DTITLE=house
DYEAR=1998
DGENRE=Blues
TTITLE0=Trials and tribulations
TTITLE1=Funkyard
TTITLE2=I stand accused
TTITLE3=Mary Ann
TTITLE4=Please come back to me
TTITLE5=Wolf funk
TTITLE6=When the answer is clear
TTITLE7=Close the door
TTITLE8=The big easy
TTITLE9=I'm in love
TTITLE10=Funk is in the house
TTITLE11=Cousin Joe
EXTD=
EXTT0=
EXTT1=
EXTT2=
EXTT3=
EXTT4=
EXTT5=
EXTT6=
EXTT7=
EXTT8=
EXTT9=
EXTT10=
EXTT11=
PLAYORDER=
